<svg xmlns="http://www.w3.org/2000/svg" version="1.1" xmlns:xlink="http://www.w3.org/1999/xlink" width="1000" height="1000"><style>
    #light-icon {
      display: inline;
    }
    #dark-icon {
      display: none;
    }

    @media (prefers-color-scheme: dark) {
      #light-icon {
        display: none;
      }
      #dark-icon {
        display: inline;
      }
    }
  </style><g id="light-icon"><svg xmlns="http://www.w3.org/2000/svg" version="1.1" xmlns:xlink="http://www.w3.org/1999/xlink" width="1000" height="1000"><g><g transform="matrix(6.955070246209487,0,0,6.955070246209487,69.79412992071224,0)"><svg xmlns="http://www.w3.org/2000/svg" version="1.1" xmlns:xlink="http://www.w3.org/1999/xlink" width="123.71" height="143.78"><svg id="Layer_2" data-name="Layer 2" xmlns="http://www.w3.org/2000/svg" viewBox="0 0 123.71 143.78">
  <defs>
    <style>
      .cls-1 {
        fill: #231f20;
      }
      @media (prefers-color-scheme: dark) {
        .cls-1 {
          fill: #ffffff;
        }
      }
    </style>
  </defs>
  <g id="Layer_1-2" data-name="Layer 1">
    <path class="cls-1" d="M71.48,143.78c-9.83-.13-19.12-2.08-27.85-5.84-8.74-3.75-16.32-8.87-22.73-15.36-6.42-6.48-11.5-14.1-15.26-22.84-3.76-8.74-5.63-18.02-5.63-27.85s1.88-19.32,5.63-28.06c3.75-8.74,8.87-16.35,15.36-22.84,6.48-6.48,14.1-11.6,22.84-15.36C52.57,1.88,61.92,0,71.89,0h51.82v25.4h-51.82c-6.42,0-12.46,1.23-18.13,3.69-5.67,2.46-10.58,5.77-14.75,9.93-4.17,4.17-7.48,9.08-9.93,14.75-2.46,5.67-3.69,11.71-3.69,18.13s1.23,12.46,3.69,18.13c2.46,5.67,5.77,10.58,9.93,14.75,4.16,4.17,9.08,7.48,14.75,9.93,5.67,2.46,11.71,3.69,18.13,3.69h51.82v25.4h-52.23Z"></path>
    <rect class="cls-1" x="61.85" y="59.29" width="61.85" height="25.4"></rect>
  </g>
</svg></svg></g></g></svg></g><g id="dark-icon"><svg xmlns="http://www.w3.org/2000/svg" version="1.1" xmlns:xlink="http://www.w3.org/1999/xlink" width="1000" height="1000"><g><g transform="matrix(6.955070246209487,0,0,6.955070246209487,69.79412992071224,0)" style="filter: invert(100%)"><svg xmlns="http://www.w3.org/2000/svg" version="1.1" xmlns:xlink="http://www.w3.org/1999/xlink" width="123.71" height="143.78"><svg id="Layer_2" data-name="Layer 2" xmlns="http://www.w3.org/2000/svg" viewBox="0 0 123.71 143.78">
  <defs>
    <style>
      .cls-1 {
        fill: #231f20;
      }
    </style>
  </defs>
  <g id="Layer_1-2" data-name="Layer 1">
    <path class="cls-1" d="M71.48,143.78c-9.83-.13-19.12-2.08-27.85-5.84-8.74-3.75-16.32-8.87-22.73-15.36-6.42-6.48-11.5-14.1-15.26-22.84-3.76-8.74-5.63-18.02-5.63-27.85s1.88-19.32,5.63-28.06c3.75-8.74,8.87-16.35,15.36-22.84,6.48-6.48,14.1-11.6,22.84-15.36C52.57,1.88,61.92,0,71.89,0h51.82v25.4h-51.82c-6.42,0-12.46,1.23-18.13,3.69-5.67,2.46-10.58,5.77-14.75,9.93-4.17,4.17-7.48,9.08-9.93,14.75-2.46,5.67-3.69,11.71-3.69,18.13s1.23,12.46,3.69,18.13c2.46,5.67,5.77,10.58,9.93,14.75,4.16,4.17,9.08,7.48,14.75,9.93,5.67,2.46,11.71,3.69,18.13,3.69h51.82v25.4h-52.23Z"></path>
    <rect class="cls-1" x="61.85" y="59.29" width="61.85" height="25.4"></rect>
  </g>
</svg></svg></g></g></svg></g></svg>