<?xml version="1.0" encoding="UTF-8"?>
<svg id="Layer_2" data-name="Layer 2" xmlns="http://www.w3.org/2000/svg" viewBox="0 0 562.83 143.78">
  <defs>
    <style>
      .cls-1 {
        fill: #231f20;
      }
    </style>
  </defs>
  <g id="Layer_1-2" data-name="Layer 1">
    <g>
      <path class="cls-1" d="M71.48,143.78c-9.83-.13-19.12-2.08-27.85-5.84-8.74-3.75-16.32-8.87-22.73-15.36-6.42-6.48-11.5-14.1-15.26-22.84-3.76-8.74-5.63-18.02-5.63-27.85s1.88-19.32,5.63-28.06c3.75-8.74,8.87-16.35,15.36-22.84,6.48-6.48,14.1-11.6,22.84-15.36C52.57,1.88,61.92,0,71.89,0h51.82v25.4h-51.82c-6.42,0-12.46,1.23-18.13,3.69-5.67,2.46-10.58,5.77-14.75,9.93-4.17,4.17-7.48,9.08-9.93,14.75-2.46,5.67-3.69,11.71-3.69,18.13s1.23,12.46,3.69,18.13c2.46,5.67,5.77,10.58,9.93,14.75,4.16,4.17,9.08,7.48,14.75,9.93,5.66,2.46,11.71,3.69,18.13,3.69h51.82v25.4h-52.23Z"/>
      <rect class="cls-1" x="61.85" y="59.19" width="61.85" height="25.4"/>
      <path class="cls-1" d="M144.19,143.78v-25.4h51.82c6.42,0,12.46-1.23,18.13-3.69,5.66-2.46,10.58-5.77,14.75-9.93,4.16-4.16,7.48-9.08,9.93-14.75,2.46-5.66,3.69-11.71,3.69-18.13s-1.23-12.46-3.69-18.13c-2.46-5.66-5.77-10.58-9.93-14.75-4.17-4.16-9.08-7.48-14.75-9.93-5.67-2.46-11.71-3.69-18.13-3.69h-51.82V0h51.82c9.97,0,19.32,1.88,28.06,5.63,8.74,3.76,16.35,8.88,22.84,15.36,6.48,6.49,11.6,14.1,15.36,22.84,3.75,8.74,5.63,18.09,5.63,28.06s-1.88,19.12-5.63,27.85c-3.76,8.74-8.84,16.35-15.26,22.84-6.42,6.49-13.96,11.61-22.63,15.36-8.67,3.76-17.92,5.7-27.75,5.84h-52.43Z"/>
      <path class="cls-1" d="M386.69,84.79h-40.96v-25.4h40.96c5.87,0,11.37,1.09,16.49,3.28,5.12,2.19,9.59,5.19,13.42,9.01,3.82,3.82,6.83,8.29,9.01,13.42,2.18,5.12,3.28,10.62,3.28,16.49s-1.09,11.37-3.28,16.49c-2.19,5.12-5.19,9.59-9.01,13.42-3.82,3.82-8.29,6.83-13.42,9.01-5.12,2.19-10.62,3.28-16.49,3.28h-26.83c-9.83,0-19.12-1.91-27.85-5.74-8.74-3.82-16.32-8.94-22.73-15.36-6.42-6.42-11.5-14-15.26-22.73-3.76-8.74-5.63-18.02-5.63-27.85s1.88-19.32,5.63-28.06c3.75-8.74,8.87-16.35,15.36-22.84,6.48-6.48,14.1-11.6,22.84-15.36,8.74-3.75,18.09-5.63,28.06-5.63h51.82v25.4h-51.82c-6.42,0-12.46,1.23-18.13,3.69-5.67,2.46-10.62,5.77-14.85,9.93-4.23,4.17-7.55,9.08-9.93,14.75-2.39,5.67-3.58,11.71-3.58,18.13s1.19,12.43,3.58,18.02c2.39,5.6,5.7,10.52,9.93,14.75,4.23,4.23,9.18,7.55,14.85,9.93,5.67,2.39,11.71,3.58,18.13,3.58h26.42c5.6,0,9.8-1.74,12.6-5.22,2.8-3.48,4.2-7.34,4.2-11.57s-1.4-8.09-4.2-11.57c-2.8-3.48-7-5.22-12.6-5.22Z"/>
      <path class="cls-1" d="M510.6,143.78c-9.83-.13-19.12-2.08-27.85-5.84-8.74-3.75-16.32-8.87-22.73-15.36-6.42-6.48-11.5-14.1-15.26-22.84-3.76-8.74-5.63-18.02-5.63-27.85s1.88-19.32,5.63-28.06c3.75-8.74,8.87-16.35,15.36-22.84,6.48-6.48,14.1-11.6,22.84-15.36,8.74-3.75,18.09-5.63,28.06-5.63h51.82v25.4h-51.82c-6.42,0-12.46,1.23-18.13,3.69-5.67,2.46-10.58,5.77-14.75,9.93-4.17,4.17-7.48,9.08-9.93,14.75-2.46,5.67-3.69,11.71-3.69,18.13s1.23,12.46,3.69,18.13c2.46,5.67,5.77,10.58,9.93,14.75,4.16,4.17,9.08,7.48,14.75,9.93,5.67,2.46,11.71,3.69,18.13,3.69h51.82v25.4h-52.23Z"/>
      <rect class="cls-1" x="500.97" y="59.29" width="61.85" height="25.4"/>
    </g>
  </g>
</svg>